<svg id="图层_1" data-name="图层 1" xmlns="http://www.w3.org/2000/svg" viewBox="0 0 47.8 42.53"><defs><style>.cls-1{fill:none;stroke:#000;stroke-miterlimit:10;}</style></defs><title>shop_car</title><path class="cls-1" d="M46.08,31.59H13.38V30l30-3.95a3.18,3.18,0,0,0,2.76-3.12V13.08a3,3,0,0,0-3-3H13.38V7.86A3.63,3.63,0,0,0,9.73,4.24H3.92a2.31,2.31,0,1,0,0,4.61H8.73V32.58a3.65,3.65,0,0,0,3.66,3.63H46.08a2.31,2.31,0,1,0,0-4.62ZM26.46,25l-5.71.75V13.41h5.71Zm2.65-11.54h5.71V23.85l-5.71.75Zm13.74,9.38-5.38.71V13.41h5.38ZM18.09,13.41V26.05l-4.71.62V13.41Z" transform="translate(-1.1 -3.74)"/><path class="cls-1" d="M19.3,36.65a4.56,4.56,0,1,0,4.59,4.56A4.58,4.58,0,0,0,19.3,36.65Z" transform="translate(-1.1 -3.74)"/><path class="cls-1" d="M41.43,36.65A4.56,4.56,0,1,0,46,41.21,4.58,4.58,0,0,0,41.43,36.65Z" transform="translate(-1.1 -3.74)"/></svg>