<svg id="图层_1" data-name="图层 1" xmlns="http://www.w3.org/2000/svg" viewBox="0 0 49.82 49.65"><defs><style>.cls-1,.cls-2,.cls-3{fill:none;stroke:#000;}.cls-1,.cls-3{stroke-linecap:round;}.cls-1,.cls-2{stroke-miterlimit:10;}.cls-3{stroke-linejoin:round;}</style></defs><title>store</title><path class="cls-1" d="M10.17.67V3.85S6.31,20.74,1.59,19.39" transform="translate(-0.09 -0.17)"/><path class="cls-1" d="M1.45,19.47s2.45,2,14-1" transform="translate(-0.09 -0.17)"/><polyline class="cls-2" points="10.08 3.19 15.36 18.27 15.66 48.93"/><line class="cls-2" x1="10.41" y1="3.46" x2="34.6" y2="6.01"/><path class="cls-1" d="M34.91,3.63V6.18s8,15.6,13.78,11.6" transform="translate(-0.09 -0.17)"/><path class="cls-1" d="M48.55,17.72c.67,2.1-20.54,3.81-32.8.72" transform="translate(-0.09 -0.17)"/><path class="cls-1" d="M6.37,20.61v5.56S4.81,32.39.59,31.55" transform="translate(-0.09 -0.17)"/><path class="cls-1" d="M49.41,30.72c-.11,2.06-2.78,2.33-2.78,2.33L15.2,31.63c-13.66,3.08-14.61.2-14.61.2" transform="translate(-0.09 -0.17)"/><path class="cls-2" d="M42,20.13v6s4.07,7.63,7.35,4.91" transform="translate(-0.09 -0.17)"/><polyline class="cls-2" points="6.55 26.27 15.36 24.99 41.93 26.27"/><polyline class="cls-3" points="3.72 33.21 3.72 49.15 45.87 49.15 45.87 33.43"/><line class="cls-2" x1="19.44" y1="32.21" x2="19.44" y2="48.93"/><line class="cls-2" x1="23.99" y1="32.21" x2="23.99" y2="48.65"/><line class="cls-2" x1="27.94" y1="32.21" x2="27.94" y2="49.15"/><line class="cls-2" x1="36.32" y1="32.88" x2="36.32" y2="48.93"/><line class="cls-2" x1="39.65" y1="32.88" x2="39.65" y2="49.15"/><line class="cls-2" x1="43.54" y1="33.21" x2="43.76" y2="48.93"/></svg>