<?xml version="1.0" encoding="utf-8"?>
<!-- Generator: Adobe Illustrator 23.1.0, SVG Export Plug-In . SVG Version: 6.00 Build 0)  -->
<svg version="1.1" id="图层_1" xmlns="http://www.w3.org/2000/svg" xmlns:xlink="http://www.w3.org/1999/xlink" x="0px" y="0px"
	 viewBox="0 0 1000 1000" style="enable-background:new 0 0 1000 1000;" xml:space="preserve">
<style type="text/css">
	.st0{fill:none;stroke:#204670;stroke-width:7.75;stroke-linecap:round;stroke-linejoin:round;stroke-miterlimit:10;}
	.st1{fill:#FFFFFF;stroke:#204670;stroke-width:7.75;stroke-linecap:round;stroke-linejoin:round;stroke-miterlimit:10;}
	.st2{writing-mode:tb;}
	.st3{stroke:#204670;stroke-miterlimit:10;}
	.st4{font-family:'KaiTi';}
	.st5{font-size:66.1378px;glyph-orientation-vertical:0;}
	.st6{font-size:66.1378px;glyph-orientation-vertical:1;}
</style>
<polyline class="st0" points="46,426 46.34,995.74 848.26,995.74 859,435 "/>
<path class="st0" d="M781.09,81.81H104.21c-8.56,0-15.5-6.94-15.5-15.5V20.5c0-8.56,6.94-15.5,15.5-15.5h676.88
	c8.56,0,15.5,6.94,15.5,15.5v45.81C796.59,74.87,789.65,81.81,781.09,81.81z"/>
<polygon class="st1" points="897.86,425.58 5,425.58 106.27,82.08 782.12,82.08 "/>
<line class="st0" x1="212.36" y1="82.08" x2="147.42" y2="425.58"/>
<line class="st0" x1="330.05" y1="82.08" x2="303" y2="425.58"/>
<line class="st0" x1="442.65" y1="81.81" x2="442.65" y2="425.58"/>
<line class="st0" x1="591.15" y1="425.58" x2="557.33" y2="82.08"/>
<line class="st0" x1="46.34" y1="523.64" x2="393.56" y2="523.72"/>
<line class="st0" x1="205.48" y1="488.67" x2="205.48" y2="523.64"/>
<line class="st0" x1="46.34" y1="620" x2="393.56" y2="619.53"/>
<line class="st0" x1="120.74" y1="530.73" x2="120.74" y2="620"/>
<line class="st0" x1="286.76" y1="523.72" x2="286.76" y2="619.53"/>
<line class="st0" x1="46.34" y1="717.88" x2="393.56" y2="717.67"/>
<line class="st0" x1="52.54" y1="827.5" x2="393.56" y2="827.5"/>
<line class="st0" x1="52.54" y1="927.97" x2="393.56" y2="927.97"/>
<line class="st0" x1="292.29" y1="934.99" x2="292.29" y2="995.74"/>
<path class="st0" d="M120.74,934.99v60.75c0,0-38.44,0-5.79,0"/>
<line class="st0" x1="205.48" y1="620" x2="205.48" y2="717.88"/>
<line class="st0" x1="120.74" y1="717.88" x2="120.74" y2="827.5"/>
<line class="st0" x1="286.76" y1="717.88" x2="286.76" y2="827.5"/>
<line class="st0" x1="823.46" y1="523.72" x2="852.39" y2="523.72"/>
<line class="st0" x1="823.46" y1="619.53" x2="852.39" y2="619.53"/>
<line class="st0" x1="823.46" y1="717.67" x2="846.19" y2="717.67"/>
<line class="st0" x1="823.46" y1="827.5" x2="852.39" y2="827.5"/>
<line class="st0" x1="823.46" y1="934.99" x2="849.51" y2="934.99"/>
<polyline class="st1" points="394,435 393.56,965.36 815.19,970.04 825,398 "/>
<polyline class="st0" points="424.56,427.96 424.56,773.75 591.97,773.75 595,441 "/>
<polyline class="st0" points="623.85,474.32 622.97,773.75 782.12,773.75 789,423 "/>
<path class="st0" d="M575.98,925.98H428.59c-6.79,0-12.3-5.51-12.3-12.3v-76.23c0-6.79,5.51-12.3,12.3-12.3h147.39
	c6.79,0,12.3,5.51,12.3,12.3v76.23C588.28,920.48,582.78,925.98,575.98,925.98z"/>
<path class="st0" d="M776.46,925.98H629.07c-6.79,0-12.3-5.51-12.3-12.3v-76.23c0-6.79,5.51-12.3,12.3-12.3h147.39
	c6.79,0,12.3,5.51,12.3,12.3v76.23C788.76,920.48,783.26,925.98,776.46,925.98z"/>
<line class="st0" x1="858.59" y1="557.29" x2="881.33" y2="556.44"/>
<line class="st0" x1="854.45" y1="694.89" x2="881.33" y2="694.3"/>
<path class="st1" d="M979.57,745.71h-78.69c-8.52,0-15.43-6.91-15.43-15.43V518.12c0-8.52,6.91-15.43,15.43-15.43h78.69
	c8.52,0,15.43,6.91,15.43,15.43v212.16C995,738.8,988.09,745.71,979.57,745.71z"/>
<text transform="matrix(1 0 0 1.1306 942.2793 530.7354)" class="st2"><tspan x="0" y="0" class="st3 st4 st5">集</tspan><tspan x="0" y="66.14" class="st3 st4 st6"> </tspan><tspan x="0" y="99.21" class="st3 st4 st5">市</tspan></text>
<g>
	<g>
		<path class="st1" d="M680.43,82.5L749.43,426c-88.5,142.54-157.45,9.35-157.45,9.35c-80.61,130.86-140.54,0-140.54,0
			c-76.47,119.17-148.81,0-148.81,0c-84.74,128.52-155.01,0-155.01,0C71.14,549.85,5,426,5,426h744.05c0,0,59.94,128.52,148.81,0"/>
	</g>
	<line class="st1" x1="748.29" y1="422.95" x2="895.96" y2="422.95"/>
</g>
</svg>
