<?xml version="1.0" standalone="no"?><!DOCTYPE svg PUBLIC "-//W3C//DTD SVG 1.1//EN" "http://www.w3.org/Graphics/SVG/1.1/DTD/svg11.dtd"><svg t="1743384965850" class="icon" viewBox="0 0 1024 1024" version="1.1" xmlns="http://www.w3.org/2000/svg" p-id="3855" xmlns:xlink="http://www.w3.org/1999/xlink" width="64" height="64"><path d="M960 256h-96.0512c-70.7584 0-102.4-33.6896-130.2528-63.488-31.1296-33.1776-60.5184-64.512-157.696-64.512h-128c-96.6656 0-126.1568 31.3344-157.2864 64.4096C262.5536 222.208 230.8096 256 159.9488 256H64c-17.7152 0-31.9488 14.336-31.9488 31.9488v576c0 17.7152 14.336 31.9488 31.9488 31.9488h896c17.6128 0 31.9488-14.336 31.9488-31.9488V287.9488c0-17.6128-14.336-31.9488-31.9488-31.9488z" fill="#F0EEE2" p-id="3856"></path><path d="M512 543.9488m-207.9744 0a207.9744 207.9744 0 1 0 415.9488 0 207.9744 207.9744 0 1 0-415.9488 0Z" fill="#BBAA9C" p-id="3857"></path><path d="M847.9744 768h-128c-8.8064 0-15.9744 7.168-15.9744 15.9744s7.168 15.9744 15.9744 15.9744h128c8.8064 0 15.9744-7.168 15.9744-15.9744s-7.0656-15.9744-15.9744-15.9744zM496.0256 512h-48.0256c-8.8064 0.2048-15.7696 7.5776-15.5648 16.384 0.2048 8.4992 7.0656 15.36 15.5648 15.5648h48.0256c8.8064-0.2048 15.7696-7.5776 15.5648-16.384-0.2048-8.4992-7.0656-15.36-15.5648-15.5648zM128 432.0256h64c8.8064 0 15.9744-7.168 15.9744-15.9744s-7.168-15.9744-15.9744-15.9744H128c-8.8064 0-15.9744 7.168-15.9744 15.9744s7.168 15.9744 15.9744 15.9744z m480.0512-192h-15.9744c-8.8064 0-15.9744 7.168-15.9744 15.9744s7.168 15.9744 15.9744 15.9744h15.9744c8.8064 0 15.9744-7.168 15.9744-15.9744s-7.168-15.9744-15.9744-15.9744zM143.9744 736.0512H48.0256c-8.8064 0.2048-15.7696 7.5776-15.5648 16.384 0.2048 8.4992 7.0656 15.36 15.5648 15.5648h96.0512c8.8064 0.2048 16.1792-6.7584 16.384-15.5648 0.2048-8.8064-6.7584-16.1792-15.5648-16.384-0.3072-0.1024-0.6144-0.1024-0.9216 0zM896 399.9744h-15.9744c-8.8064 0-15.9744 7.168-15.9744 15.9744s7.168 15.9744 15.9744 15.9744H896c8.8064 0 15.9744-7.168 15.9744-15.9744s-7.168-15.9744-15.9744-15.9744z m-496.0256-47.9232h-64c-8.8064 0.2048-15.7696 7.5776-15.5648 16.384 0.2048 8.4992 7.0656 15.36 15.5648 15.5648h64c8.8064-0.2048 15.7696-7.5776 15.5648-16.384-0.2048-8.4992-6.9632-15.36-15.5648-15.5648z m-175.9232 256h-48.0256c-8.8064 0-15.9744 7.168-15.9744 15.9744s7.168 15.9744 15.9744 15.9744h48.0256c8.8064 0 15.9744-7.168 15.9744-15.9744s-7.168-15.9744-15.9744-15.9744z m655.9744 47.9232c-8.8064 0-15.9744 7.168-15.9744 15.9744s7.168 15.9744 15.9744 15.9744 15.9744-7.168 15.9744-15.9744-7.168-15.9744-15.9744-15.9744z" fill="#D8D5BA" p-id="3858"></path><path d="M512 704c88.3712 0 159.9488-71.68 159.9488-159.9488S600.3712 384 512 384s-159.9488 71.68-159.9488 159.9488S423.6288 704 512 704z m0-288.0512c70.656 0 128 57.344 128 128s-57.344 128-128 128-128-57.344-128-128 57.344-128 128-128z m271.9744-47.9232c-8.8064 0-15.9744 7.168-15.9744 15.9744s7.168 15.9744 15.9744 15.9744 15.9744-7.168 15.9744-15.9744-7.0656-15.9744-15.9744-15.9744z m176.0256-143.9744h-96.0512c-128 0-87.9616-128-287.9488-128h-128c-198.9632 0-159.9488 128-287.9488 128H64C28.672 224.0512 0 252.6208 0 287.9488v576c0 35.328 28.672 64 64 64h896c35.328 0 64-28.672 64-64V287.9488c0-35.328-28.672-63.8976-64-63.8976z m0 640h-896V496.0256h229.1712c-3.4816 15.7696-5.2224 31.8464-5.12 48.0256C287.9488 667.7504 388.3008 768 512 768s224.0512-100.2496 224.0512-224.0512c0-16.1792-1.7408-32.256-5.12-48.0256h229.1712v368.128z m-640-320.1024c0-105.984 86.016-192 192-192s192 86.016 192 192-86.016 192-192 192-192-85.9136-192-192z m640-79.9744H721.3056C689.0496 379.8016 607.5392 320 512 320s-177.0496 59.8016-209.3056 143.9744H64V287.9488h96.0512c84.5824 0 124.7232-42.5984 153.9072-73.6256 28.672-30.4128 51.2-54.3744 134.0416-54.3744h128c83.3536 0 105.8816 23.9616 134.3488 54.3744 29.0816 31.0272 69.0176 73.6256 153.6 73.6256h96.0512v176.0256z" fill="#5F4E56" p-id="3859"></path></svg>