<?xml version="1.0" standalone="no"?><!DOCTYPE svg PUBLIC "-//W3C//DTD SVG 1.1//EN" "http://www.w3.org/Graphics/SVG/1.1/DTD/svg11.dtd"><svg t="1743386379922" class="icon" viewBox="0 0 1024 1024" version="1.1" xmlns="http://www.w3.org/2000/svg" p-id="4516" xmlns:xlink="http://www.w3.org/1999/xlink" width="64" height="64"><path d="M512 176.0256c-265.1136 0-480.0512 277.504-480.0512 335.9744S246.8864 847.9744 512 847.9744s480.0512-277.504 480.0512-335.9744S777.1136 176.0256 512 176.0256z" fill="#F0EEE2" p-id="4517"></path><path d="M512 304.0256c-114.8928 0-207.9744 93.0816-207.9744 207.9744s93.184 207.9744 207.9744 207.9744 207.9744-93.184 207.9744-207.9744S626.8928 304.0256 512 304.0256z m0 287.9488c-44.1344 0-79.9744-35.84-79.9744-79.9744s35.84-79.9744 79.9744-79.9744 79.9744 35.84 79.9744 79.9744c0 44.1344-35.7376 79.9744-79.9744 79.9744z" fill="#BBAA9C" p-id="4518"></path><path d="M608.0512 256c0-8.8064-7.168-15.9744-15.9744-15.9744s-15.9744 7.168-15.9744 15.9744 7.168 15.9744 15.9744 15.9744 15.9744-7.168 15.9744-15.9744z m319.8976 143.9744h-79.9744c-8.8064 0-15.9744 7.168-15.9744 15.9744s7.168 15.9744 15.9744 15.9744h79.9744c8.8064 0 15.9744-7.168 15.9744-15.9744s-7.0656-15.9744-15.9744-15.9744zM399.9744 543.9488h-79.9744c-8.8064 0-15.9744 7.168-15.9744 15.9744s7.168 15.9744 15.9744 15.9744h79.9744c8.8064 0 15.9744-7.168 15.9744-15.9744s-7.0656-15.9744-15.9744-15.9744zM640 399.9744h-31.9488c-8.8064 0-15.9744 7.168-15.9744 15.9744s7.168 15.9744 15.9744 15.9744H640c8.8064 0 15.9744-7.168 15.9744-15.9744s-7.168-15.9744-15.9744-15.9744zM192 384h-79.9744c-8.8064 0-15.9744 7.168-15.9744 15.9744s7.168 15.9744 15.9744 15.9744h79.9744c8.8064 0 15.9744-7.168 15.9744-15.9744s-7.168-15.9744-15.9744-15.9744zM256 624.0256h-31.9488c-8.8064 0-15.9744 7.168-15.9744 15.9744s7.168 15.9744 15.9744 15.9744H256c8.8064 0 15.9744-7.168 15.9744-15.9744s-7.168-15.9744-15.9744-15.9744z m496.0256 112.0256h-79.9744c-8.8064 0.2048-15.7696 7.5776-15.5648 16.384 0.2048 8.4992 7.0656 15.36 15.5648 15.5648h79.9744c8.8064-0.2048 15.7696-7.5776 15.5648-16.384-0.2048-8.4992-7.0656-15.36-15.5648-15.5648z m64-144.0768h-31.9488c-8.8064-0.2048-16.1792 6.7584-16.384 15.5648s6.7584 16.1792 15.5648 16.384h32.768c8.8064-0.2048 15.7696-7.5776 15.5648-16.384-0.2048-8.4992-7.0656-15.36-15.5648-15.5648z" fill="#D8D5BA" p-id="4519"></path><path d="M512.1024 416.1536c-52.9408 0-95.744 42.9056-95.744 95.8464 0 52.9408 42.9056 95.744 95.8464 95.744 52.8384 0 95.744-42.9056 95.744-95.744-0.1024-53.0432-42.9056-95.8464-95.8464-95.8464z m-0.2048 159.9488c-35.328 0-64-28.672-64-64s28.672-64 64-64 64 28.672 64 64-28.672 64-64 64z m0.1024-288.0512c-123.6992 0-224.0512 100.2496-224.0512 223.9488s100.352 223.9488 224.0512 223.9488S736.0512 635.6992 736.0512 512s-100.352-223.9488-224.0512-223.9488z m0 415.744c-106.0864 0-192.2048-85.9136-192.2048-191.7952s86.016-191.7952 192.2048-191.7952S704.2048 406.016 704.2048 512s-86.016 191.7952-192.2048 191.7952z m0-559.8208C229.2736 143.9744 0 448 0 512s229.2736 368.0256 512 368.0256 512-304.0256 512-368.0256-229.2736-368.0256-512-368.0256z m0 671.9488C276.7872 816.0256 86.2208 570.88 65.024 512 86.2208 453.12 276.7872 207.9744 512 207.9744S937.7792 453.12 958.976 512C937.7792 570.88 747.2128 816.0256 512 815.9232z" fill="#5F4E56" p-id="4520"></path></svg>