<?xml version="1.0" standalone="no"?><!DOCTYPE svg PUBLIC "-//W3C//DTD SVG 1.1//EN" "http://www.w3.org/Graphics/SVG/1.1/DTD/svg11.dtd"><svg t="1743388295392" class="icon" viewBox="0 0 1024 1024" version="1.1" xmlns="http://www.w3.org/2000/svg" p-id="4846" xmlns:xlink="http://www.w3.org/1999/xlink" width="64" height="64"><path d="M256 31.9488h512c17.7152 0 31.9488 14.336 31.9488 31.9488v896c0 17.7152-14.336 31.9488-31.9488 31.9488H256c-17.7152 0-31.9488-14.336-31.9488-31.9488v-896c0-17.6128 14.2336-31.9488 31.9488-31.9488z" fill="#F0EEE2" p-id="4847"></path><path d="M256 960h512V896H256v64z m0-896V128h512V64H256z" fill="#BBAA9C" p-id="4848"></path><path d="M368.0256 287.9488h-128c-8.8064 0-15.9744 7.168-15.9744 15.9744s7.168 15.9744 15.9744 15.9744h128c8.8064 0 15.9744-7.168 15.9744-15.9744s-7.168-15.9744-15.9744-15.9744z m256-175.9232h48.0256c8.8064 0 15.9744-7.168 15.9744-15.9744s-7.168-15.9744-15.9744-15.9744h-48.0256c-8.8064 0-15.9744 7.168-15.9744 15.9744s7.168 15.9744 15.9744 15.9744zM688.0256 384c0-8.8064-7.168-15.9744-15.9744-15.9744h-79.9744c-8.8064 0-15.9744 7.168-15.9744 15.9744s7.168 15.9744 15.9744 15.9744h79.9744c8.8064 0 15.9744-7.168 15.9744-15.9744zM320 752.0256h-79.9744c-8.8064 0-15.9744 7.168-15.9744 15.9744s7.168 15.9744 15.9744 15.9744h79.9744c8.8064 0 15.9744-7.168 15.9744-15.9744s-7.168-15.9744-15.9744-15.9744z m112.0256-640h-96.0512c-8.8064-0.2048-16.1792 6.7584-16.384 15.5648s6.7584 16.1792 15.5648 16.384h96.8704c8.8064-0.2048 15.7696-7.5776 15.5648-16.384-0.2048-8.4992-7.0656-15.36-15.5648-15.5648z m223.9488 576c-8.8064 0.2048-15.7696 7.5776-15.5648 16.384 0.2048 8.4992 7.0656 15.36 15.5648 15.5648h31.9488c8.8064 0.2048 16.1792-6.7584 16.384-15.5648s-6.7584-16.1792-15.5648-16.384h-32.768z m-112.0256-128h-64c-8.8064-0.2048-16.1792 6.7584-16.384 15.5648s6.7584 16.1792 15.5648 16.384h64.8192c8.8064 0.2048 16.1792-6.7584 16.384-15.5648s-6.7584-16.1792-15.5648-16.384h-0.8192z m160.0512 367.9232h-48.0256c-8.8064 0.2048-15.7696 7.5776-15.5648 16.384 0.2048 8.4992 7.0656 15.36 15.5648 15.5648h48.0256c8.8064-0.2048 15.7696-7.5776 15.5648-16.384-0.2048-8.3968-7.0656-15.2576-15.5648-15.5648zM399.9744 448c-8.8064 0-15.9744 7.168-15.9744 15.9744s7.168 15.9744 15.9744 15.9744 15.9744-7.168 15.9744-15.9744-7.168-15.9744-15.9744-15.9744z" fill="#D8D5BA" p-id="4849"></path><path d="M768 0H256c-35.328 0-64 28.672-64 64v896c0 35.328 28.672 64 64 64h512c35.328 0 64-28.672 64-64v-896C832 28.672 803.328 0 768 0z m0 960H256V896h256c-17.7152 0-31.9488 14.336-31.9488 32.0512s14.336 31.9488 32.0512 31.9488 31.9488-14.336 31.9488-32.0512c0-17.6128-14.336-31.9488-31.9488-31.9488H768v64z m0-95.9488H256V159.9488h512v704.1024z m0-736.0512H256V64h512V128z" fill="#5F4E56" p-id="4850"></path></svg>