<?xml version="1.0" standalone="no"?><!DOCTYPE svg PUBLIC "-//W3C//DTD SVG 1.1//EN" "http://www.w3.org/Graphics/SVG/1.1/DTD/svg11.dtd"><svg t="1743384936594" class="icon" viewBox="0 0 1026 1024" version="1.1" xmlns="http://www.w3.org/2000/svg" p-id="3690" xmlns:xlink="http://www.w3.org/1999/xlink" width="64.125" height="64"><path d="M858.920472 366.805028l-32.76759-32.76759 42.290671-18.943762c34.610767-15.564605 65.125585-35.225159 83.966948-53.964125 52.325745-52.530542 52.325745-137.521478-0.204797-189.847223-52.530542-52.325745-137.521478-52.325745-189.847223 0.204797-18.738965 18.738965-38.297121 49.048986-53.861726 83.454956l-19.046161 42.188271-32.76759-32.767589-122.673664-122.878462c-12.390245-12.492644-32.562792-12.492644-45.055436 0L358.29314 172.247464c19.046162 11.16146 35.634754 23.346908 47.513005 35.12276 54.476118 54.783314 54.168922 143.358205-0.716791 197.834323-54.578517 54.271321-142.846212 54.168922-197.32233-0.204797-11.775853-11.673454-23.858901-28.057249-35.020361-46.898613L41.573905 489.478692c-12.492644 12.492644-12.492644 32.76759 0 45.260234l122.571266 122.776062 32.665191 32.76759-42.188272 19.046162c-34.303571 15.462206-64.613591 35.020362-83.250158 53.656928-52.223346 52.223346-52.120947 136.804687 0 189.028033 25.087686 25.087686 59.186459 39.218709 94.718814 39.116311 35.532355 0.102399 69.631128-14.028624 94.718814-39.116311 18.534168-18.534168 38.092323-48.74179 53.452131-82.738164l19.046162-42.188272 32.665191 32.76759 122.878461 122.98086c12.390245 12.492644 32.562792 12.492644 45.055436 0.102399l0.102399-0.102399 130.660764-130.96796c-19.046162-11.16146-35.532355-23.244509-47.308208-35.020361-54.578517-54.168922-54.988112-142.231819-0.819189-196.810336l0.819189-0.81919c54.885713-54.476118 143.460604-54.476118 198.346317 0 11.673454 11.571055 23.756503 27.852451 34.917963 46.489018l130.660764-130.865562c12.492644-12.492644 12.492644-32.76759 0-45.260233L858.920472 366.805028z" fill="#F0EEE2" p-id="3691"></path><path d="M96.050023 768.003205c-10.854264 0-21.606129 1.126386-32.153197 3.276759-47.717803 56.319295-40.549892 140.59344 15.769402 188.208844 24.166097 20.377345 54.783314 31.538805 86.424518 31.538805 31.846001 0.102399 62.668015-11.263859 86.834113-32.050799 17.202985-86.629315-39.11631-170.698663-125.643227-187.901647-10.342271-2.047974-20.78694-3.071962-31.231609-3.071962zM951.591312 72.101518c-49.356182-49.356182-128.407992-52.428144-181.552927-7.16791-17.100586 86.731714 39.321108 170.90346 126.052822 188.004046 20.78694 4.095949 42.188272 3.99355 62.975211-0.204798 45.055436-52.940137 41.778677-131.582353-7.475106-180.631338z" fill="#BBAA9C" p-id="3692"></path><path d="M655.966213 384.008013c-8.80629 0-15.9742 7.16791-15.9742 15.9742s7.16791 15.9742 15.9742 15.9742 15.9742-7.16791 15.9742-15.9742-7.16791-15.9742-15.9742-15.9742z m-79.973399 319.995993h-79.973399c-8.80629 0.204797-15.769403 7.577505-15.564605 16.383795 0.204797 8.499094 7.065512 15.359808 15.564605 15.564605h79.973399c8.80629-0.204797 15.769403-7.577505 15.564605-16.383795-0.204797-8.499094-7.065512-15.359808-15.564605-15.564605zM287.945221 527.98061h-63.999199c-8.80629 0-15.9742 7.16791-15.9742 15.9742s7.16791 15.9742 15.9742 15.9742h63.999199c8.80629 0 15.9742-7.16791 15.9742-15.9742s-7.065512-15.9742-15.9742-15.9742z m528.070188-79.973399h-31.9484c-8.80629 0-15.9742 7.16791-15.9742 15.9742s7.16791 15.9742 15.9742 15.9742h31.9484c8.80629 0 15.9742-7.16791 15.9742-15.9742s-7.16791-15.9742-15.9742-15.9742z m-335.970194 127.998398c0 8.80629 7.16791 15.9742 15.9742 15.9742h31.9484c8.80629 0.204797 16.178997-6.758315 16.383795-15.564605s-6.758315-16.178997-15.564605-16.383795h-32.76759c-8.908688 0-15.9742 7.16791-15.9742 15.9742zM511.993615 415.956413c0-8.80629-7.16791-15.9742-15.9742-15.9742h-79.973398c-8.80629 0-15.9742 7.16791-15.9742 15.9742s7.16791 15.9742 15.9742 15.9742h79.973398c8.80629 0.102399 15.9742-7.065512 15.9742-15.9742 0 0.102399 0 0.102399 0 0z m0 400.071791h-31.9484c-8.80629 0-15.9742 7.16791-15.9742 15.9742s7.16791 15.9742 15.9742 15.9742H511.993615c8.80629 0 15.9742-7.16791 15.9742-15.9742s-7.16791-15.9742-15.9742-15.9742zM992.038805 128.011218h-79.973398c-8.80629-0.204797-16.178997 6.758315-16.383795 15.564605-0.204797 8.80629 6.758315 16.178997 15.564605 16.383795H992.038805c8.80629-0.204797 15.769403-7.577505 15.564605-16.383795-0.204797-8.499094-7.065512-15.359808-15.564605-15.564605z m-767.990384 703.991186h-79.973399c-8.80629 0-15.9742 7.16791-15.9742 15.9742s7.16791 15.9742 15.9742 15.9742h79.973399c8.80629 0 15.9742-7.16791 15.9742-15.9742s-7.16791-15.9742-15.9742-15.9742z m143.972597-160.049196h-15.9742c-8.80629 0-15.9742 7.16791-15.9742 15.9742s7.16791 15.9742 15.9742 15.9742h15.9742c8.80629 0 15.9742-7.16791 15.9742-15.9742s-7.16791-15.9742-15.9742-15.9742z m223.945996-431.917793h-15.9742c-8.80629 0-15.9742 7.16791-15.9742 15.9742s7.16791 15.9742 15.9742 15.9742h15.9742c8.80629 0 15.9742-7.16791 15.9742-15.9742s-7.16791-15.9742-15.9742-15.9742z" fill="#D8D5BA" p-id="3693"></path><path d="M881.857785 344.174911c37.682728-16.895788 71.474305-38.809114 93.387631-60.517642 64.920787-64.71599 65.023186-169.674676 0.307196-234.595463l-0.307196-0.307196c-65.023186-64.920787-170.391467-64.920787-235.414653 0-21.810927 21.708528-43.621854 55.295308-60.517642 92.773239L556.741855 18.751786c-24.882888-24.985287-65.330382-24.985287-90.315669-0.102399l-0.102399 0.102399-161.789974 161.994772c32.255596 13.721428 61.951224 32.460394 78.744614 49.253783 42.085873 41.778677 42.290671 109.771426 0.511994 151.857299l-0.511994 0.511993c-42.290671 42.085873-110.693014 42.085873-152.983685 0-16.79339-16.690991-35.429956-46.079423-49.151384-77.925424L18.738991 466.746177c-24.985287 24.985287-24.985287 65.535179 0 90.520467L141.310256 679.940308c-37.477931 16.895788-70.962312 38.604317-92.670839 60.210446-64.71599 64.511192-64.818388 169.265081-0.307196 233.98107l0.307196 0.307197c64.818388 64.71599 169.879473 64.71599 234.697861 0 21.606129-21.606129 43.314658-54.885713 60.108048-92.158847l122.776063 122.878462c24.882888 24.985287 65.330382 24.985287 90.315669 0.102399l0.102399-0.102399 161.994771-162.097171c-32.255596-13.721428-61.848826-32.357995-78.642215-49.048986-42.085873-41.676278-42.393069-109.46423-0.716791-151.550102l0.716791-0.716791c42.495468-42.085873 110.897812-42.085873 153.393279 0 16.690991 16.588592 35.327558 45.669828 49.048986 77.413431l161.789975-161.892373c24.985287-24.985287 24.985287-65.535179 0-90.520467L881.857785 344.174911z m46.28422-249.750473c38.706715 38.911513 41.471481 100.862737 6.348721 142.948611-1.638379 0.102399-3.276759 0.102399-4.915139 0.102398-79.563804 0-143.972597-64.511192-143.972597-143.972597 0-1.843177 0-3.583955 0.102399-5.324734 41.778677-35.327558 103.729901-32.562792 142.436616 6.246322zM239.920222 933.684331c-43.621854 38.809114-110.488217 34.917963-149.39973-8.703891-35.737153-40.140297-35.737153-100.760338 0.204798-140.900636 1.740778-0.102399 3.583955-0.102399 5.324733-0.102399 79.563804 0 143.972597 64.408794 143.972598 143.972598 0 1.945576-0.102399 3.788753-0.102399 5.734328z m613.880314-316.30964c-6.246322-8.396695-13.004637-16.281396-20.274946-23.654104-66.251971-66.354369-173.770624-66.456768-240.124994-0.204797s-66.456768 173.770624-0.204797 240.124993c7.475106 7.372708 15.564605 14.233422 23.9613 20.479744L511.481622 960.000801 311.701723 760.016105c4.403145 40.140297-17.305383 97.073985-42.393069 137.009485-13.004637-72.498292-69.733527-129.329581-142.231819-142.334218 39.730703-25.190085 96.66439-47.10341 136.702288-42.700266L63.896826 512.00641l105.675477-105.777876c6.246322 8.499094 13.107036 16.588592 20.582142 24.063699 66.251971 66.149572 173.668226 66.149572 239.817797-0.102398s66.149572-173.668226-0.102398-239.817798c-7.475106-7.372708-15.564605-14.233422-24.063699-20.479744L511.481622 64.012019l199.779899 199.984696c-4.607942-41.369082 18.636567-100.65794 44.748239-140.59344 12.697441 73.419881 70.143122 130.865562 143.563003 143.563003-39.730703 26.111673-99.01956 49.560979-140.286244 45.055436L959.066418 512.00641 853.800536 617.374691z" fill="#5F4E56" p-id="3694"></path></svg>