<?xml version="1.0" standalone="no"?><!DOCTYPE svg PUBLIC "-//W3C//DTD SVG 1.1//EN" "http://www.w3.org/Graphics/SVG/1.1/DTD/svg11.dtd"><svg t="1743388952511" class="icon" viewBox="0 0 1024 1024" version="1.1" xmlns="http://www.w3.org/2000/svg" p-id="5176" xmlns:xlink="http://www.w3.org/1999/xlink" width="64" height="64"><path d="M799.9488 415.9488c0-212.0704-171.9296-384-384-384s-384 171.9296-384 384 171.9296 384 384 384 384-171.8272 384-384z m-384 272.0768c-150.2208 0-271.9744-121.7536-271.9744-271.9744s121.7536-271.9744 271.9744-271.9744 271.9744 121.7536 271.9744 271.9744S566.272 688.0256 415.9488 688.0256z m317.3376-45.2608l-90.5216 90.5216 240.0256 240.0256 90.5216-90.5216-240.0256-240.0256z" fill="#F0EEE2" p-id="5177"></path><path d="M973.2096 882.688l-56.0128-56.0128-90.5216 90.5216 56.0128 56.0128c24.9856 24.9856 65.536 24.9856 90.5216 0s24.9856-65.4336 0-90.5216z" fill="#BBAA9C" p-id="5178"></path><path d="M816.0256 752.0256h-31.9488c-8.8064 0-15.9744 7.168-15.9744 15.9744s7.168 15.9744 15.9744 15.9744h31.9488c8.8064 0 15.9744-7.168 15.9744-15.9744s-7.168-15.9744-15.9744-15.9744zM159.9488 512H128c-8.8064 0.2048-15.7696 7.5776-15.5648 16.384 0.2048 8.4992 7.0656 15.36 15.5648 15.5648h31.9488c8.8064 0.2048 16.1792-6.7584 16.384-15.5648 0.2048-8.8064-6.7584-16.1792-15.5648-16.384h-0.8192z m640-64c0-8.8064-7.168-15.9744-15.9744-15.9744h-96.0512c-8.8064-0.2048-16.1792 6.7584-16.384 15.5648s6.7584 16.1792 15.5648 16.384h96.8704c8.9088 0 15.9744-7.168 15.9744-15.9744z m-256 223.9488H432.0256c-8.8064 0-15.9744 7.168-15.9744 15.9744s7.168 15.9744 15.9744 15.9744h112.0256c8.8064 0 15.9744-7.168 15.9744-15.9744s-7.168-15.9744-16.0768-15.9744zM96.0512 320H31.9488c-8.8064 0-15.9744 7.168-15.9744 15.9744s7.168 15.9744 15.9744 15.9744h64c8.8064 0 15.9744-7.168 15.9744-15.9744s-7.0656-15.9744-15.872-15.9744z m815.9232 591.9744h-64c-8.8064 0-15.9744 7.168-15.9744 15.9744s7.168 15.9744 15.9744 15.9744h64c8.8064 0 15.9744-7.168 15.9744-15.9744s-7.0656-15.9744-15.9744-15.9744zM736.0512 192c0-8.8064-7.168-15.9744-15.9744-15.9744h-64c-8.8064 0-15.9744 7.168-15.9744 15.9744s7.168 15.9744 15.9744 15.9744h64c8.8064 0 15.9744-7.168 15.9744-15.9744zM271.9744 688.0256c-8.8064 0-15.9744 7.168-15.9744 15.9744s7.168 15.9744 15.9744 15.9744 15.9744-7.168 15.9744-15.9744-7.0656-15.9744-15.9744-15.9744zM384 79.9744h-31.9488c-8.8064 0-15.9744 7.168-15.9744 15.9744s7.168 15.9744 15.9744 15.9744H384c8.8064 0 15.9744-7.168 15.9744-15.9744s-7.168-15.9744-15.9744-15.9744z" fill="#D8D5BA" p-id="5179"></path><path d="M415.9488 128C256.9216 128 128 256.9216 128 415.9488s128.9216 287.9488 287.9488 287.9488 287.9488-128.9216 287.9488-287.9488S575.0784 128 415.9488 128z m0 543.9488c-141.4144 0-256-114.5856-256-256s114.5856-256 256-256 256 114.5856 256 256-114.5856 256-256 256zM995.84 860.16L770.1504 634.368c40.5504-65.6384 61.952-141.2096 61.8496-218.3168C832 186.2656 645.7344 0 415.9488 0S0 186.2656 0 415.9488s186.2656 415.9488 415.9488 415.9488c77.1072 0.1024 152.7808-21.2992 218.3168-61.8496L860.16 995.84c38.4 36.5568 99.2256 35.0208 135.68-3.4816 35.2256-36.9664 35.2256-95.1296 0-132.1984z m-579.8912-92.16C221.5936 768 64 610.4064 64 415.9488S221.5936 64 415.9488 64 768 221.5936 768 415.9488 610.4064 768 415.9488 768z m422.0928 115.3024L686.6944 731.9552a429.2608 429.2608 0 0 0 45.2608-45.2608l151.4496 151.3472-45.3632 45.2608z m89.9072 76.6976c-8.4992 0-16.5888-3.3792-22.6304-9.4208l-44.6464-44.6464 45.2608-45.2608 44.6464 44.6464c12.4928 12.4928 12.4928 32.768 0 45.2608-5.9392 6.0416-14.1312 9.4208-22.6304 9.4208z" fill="#5F4E56" p-id="5180"></path></svg>