<?xml version="1.0" encoding="utf-8"?>
<!-- Generator: Adobe Illustrator 23.0.0, SVG Export Plug-In . SVG Version: 6.00 Build 0)  -->
<svg version="1.1" id="图层_1" xmlns="http://www.w3.org/2000/svg" xmlns:xlink="http://www.w3.org/1999/xlink" x="0px" y="0px"
	 viewBox="0 0 200 200" style="enable-background:new 0 0 200 200;" xml:space="preserve">
<style type="text/css">
	.st0{fill:#929DDD;}
	.st1{fill:#747FAA;}
	.st2{fill:none;stroke:#002C5B;stroke-miterlimit:10;}
	.st3{fill:#FFFFFF;stroke:#002C5B;stroke-miterlimit:10;}
</style>
<g>
	<g>
		<g>
			<g>
				<g>
					<path class="st0" d="M118.99,18.79c0.03,0,0.06,0,0.09,0c0.03,0,0.06,0,0.09,0H118.99z"/>
				</g>
				<g>
					<path class="st0" d="M144.81,66.28c-10.82-6.99-12.26-20.19,0.51-41.54c0.62-1.04,0.83-2.17,0.74-3.26
						c-8.24-1.79-17.34-2.78-26.98-2.69c-14.11-0.13-27.13,2.01-37.85,5.67c-3.42,1.17-5,5.12-3.14,8.22
						c12.77,21.35,11.34,34.55,0.51,41.54c-26.67,17.21-15.68,59.6-14.75,63.37c3.99,16.23,12.66,35.61,20.61,49.7h19.78h0.18h23.85
						c3.75,0,7.21-1.97,9.1-5.2c8.35-14.23,17.93-35.14,22.19-52.45C160.49,125.89,171.48,83.5,144.81,66.28z"/>
				</g>
			</g>
		</g>
		<path class="st1" d="M104.24,187.3h24.03c3.75,0,7.21-1.97,9.1-5.2c8.35-14.23,17.93-35.14,22.19-52.45
			c0.93-3.76,11.92-46.15-14.75-63.37c-10.82-6.99-12.26-20.19,0.51-41.54c1.86-3.1,0.28-7.05-3.14-8.22
			c-10.75-3.68-23.8-5.81-37.95-5.67h0.18c-14.15-0.14-27.2,2-37.95,5.67c-3.42,1.17-5,5.12-3.14,8.22
			C76.11,46.1,74.68,59.3,63.85,66.28c-26.67,17.21-15.68,59.6-14.75,63.37c4.26,17.31,13.84,38.21,22.19,52.45
			c1.9,3.23,5.36,5.2,9.1,5.2h24.03"/>
	</g>
	<g>
		<g>
			<g>
				<g>
					<path class="st0" d="M111.57,17.18c0.03,0,0.06,0,0.09,0c0.03,0,0.06,0,0.09,0H111.57z"/>
				</g>
				<g>
					<path class="st0" d="M137.39,64.67c-10.82-6.99-12.26-20.19,0.51-41.54c0.62-1.04,0.83-2.17,0.74-3.26
						c-8.24-1.79-17.34-2.78-26.98-2.69c-14.11-0.13-27.13,2.01-37.85,5.67c-3.42,1.17-5,5.12-3.14,8.22
						C83.44,52.43,82,65.63,71.18,72.61c-26.67,17.21-15.68,59.6-14.75,63.37c3.99,16.23,12.66,35.61,20.61,49.7h19.78H97h23.85
						c3.75,0,7.21-1.97,9.1-5.2c8.35-14.23,17.93-35.14,22.19-52.45C153.07,124.27,164.06,81.88,137.39,64.67z"/>
				</g>
			</g>
		</g>
		<path class="st2" d="M96.81,185.68h24.03c3.75,0,7.21-1.97,9.1-5.2c8.35-14.23,17.93-35.14,22.19-52.45
			c0.93-3.76,11.92-46.15-14.75-63.37c-10.82-6.99-12.26-20.19,0.51-41.54c1.86-3.1,0.28-7.05-3.14-8.22
			c-10.75-3.68-23.8-5.81-37.95-5.67H97c-14.15-0.14-27.2,2-37.95,5.67c-3.42,1.17-5,5.12-3.14,8.22
			c12.77,21.35,11.34,34.55,0.51,41.54c-26.67,17.21-15.68,59.6-14.75,63.37c4.26,17.31,13.84,38.21,22.19,52.45
			c1.9,3.23,5.36,5.2,9.1,5.2H97"/>
		<circle class="st3" cx="82.53" cy="89.45" r="6.53"/>
		<circle class="st3" cx="74.3" cy="120.8" r="6.53"/>
		<circle class="st3" cx="135.21" cy="121.61" r="6.53"/>
		<circle class="st3" cx="80.54" cy="150.88" r="6.53"/>
		<circle class="st3" cx="128.11" cy="151.87" r="6.53"/>
		<circle class="st3" cx="132.46" cy="89.45" r="6.53"/>
	</g>
</g>
</svg>
