<?xml version="1.0" standalone="no"?><!DOCTYPE svg PUBLIC "-//W3C//DTD SVG 1.1//EN" "http://www.w3.org/Graphics/SVG/1.1/DTD/svg11.dtd"><svg t="1743384140070" class="icon" viewBox="0 0 1024 1024" version="1.1" xmlns="http://www.w3.org/2000/svg" p-id="3030" xmlns:xlink="http://www.w3.org/1999/xlink" width="64" height="64"><path d="M512 512m-480.0512 0a480.0512 480.0512 0 1 0 960.1024 0 480.0512 480.0512 0 1 0-960.1024 0Z" fill="#F0EEE2" p-id="3031"></path><path d="M320 704h128v-384h-128v384z m256-384v384h128v-384h-128z" fill="#BBAA9C" p-id="3032"></path><path d="M864.0512 384c8.8064 0 15.9744-7.168 15.9744-15.9744s-7.168-15.9744-15.9744-15.9744-15.9744 7.168-15.9744 15.9744c-0.1024 8.8064 7.0656 15.9744 15.9744 15.9744z m-48.0256 480.0512H704c-8.8064 0-15.9744 7.168-15.9744 15.9744s7.168 15.9744 15.9744 15.9744h112.0256c8.8064 0 15.9744-7.168 15.9744-15.9744s-7.168-15.9744-15.9744-15.9744zM128 335.9744H64c-8.8064 0-15.9744 7.168-15.9744 15.9744s7.168 15.9744 15.9744 15.9744H128c8.8064 0 15.9744-7.168 15.9744-15.9744s-7.168-15.9744-15.9744-15.9744zM399.9744 384h-31.9488c-8.8064 0-15.9744 7.168-15.9744 15.9744s7.168 15.9744 15.9744 15.9744h31.9488c8.8064 0 15.9744-7.168 15.9744-15.9744s-7.0656-15.9744-15.9744-15.9744z m256-224.0512c0-8.8064-7.168-15.9744-15.9744-15.9744h-64c-8.8064 0.2048-15.7696 7.5776-15.5648 16.384 0.2048 8.4992 7.0656 15.36 15.5648 15.5648H640c8.8064 0.1024 15.9744-7.0656 15.9744-15.9744 0 0.1024 0 0.1024 0 0zM640 608.0512h-31.9488c-8.8064 0-15.9744 7.168-15.9744 15.9744s7.168 15.9744 15.9744 15.9744H640c8.8064 0 15.9744-7.168 15.9744-15.9744s-7.168-15.9744-15.9744-15.9744z m-335.9744-48.0256h-128c-8.8064 0-15.9744 7.168-15.9744 15.9744s7.168 15.9744 15.9744 15.9744h128c8.8064 0 15.9744-7.168 15.9744-15.9744s-7.168-15.9744-15.9744-15.9744z m0 256h-31.9488c-8.8064 0.2048-15.7696 7.5776-15.5648 16.384 0.2048 8.4992 7.0656 15.36 15.5648 15.5648h31.9488c8.8064 0.2048 16.1792-6.7584 16.384-15.5648s-6.7584-16.1792-15.5648-16.384h-0.8192z m576-207.9744h-31.9488c-8.8064 0-15.9744 7.168-15.9744 15.9744s7.168 15.9744 15.9744 15.9744h31.9488c8.8064 0 15.9744-7.168 15.9744-15.9744s-7.168-15.9744-15.9744-15.9744zM384 207.9744c0-8.8064-7.168-15.9744-15.9744-15.9744h-48.0256c-8.8064 0-15.9744 7.168-15.9744 15.9744s7.168 15.9744 15.9744 15.9744h48.0256c8.8064 0.1024 15.9744-7.0656 15.9744-15.9744z m352.0512 240.0256c0-8.8064-7.168-15.9744-15.9744-15.9744h-64c-8.8064 0.2048-15.7696 7.5776-15.5648 16.384 0.2048 8.4992 7.0656 15.36 15.5648 15.5648h64c8.8064 0 15.9744-7.168 15.9744-15.9744zM527.9744 783.9744H512c-8.8064 0-15.9744 7.168-15.9744 15.9744s7.168 15.9744 15.9744 15.9744h15.9744c8.8064 0 15.9744-7.168 15.9744-15.9744s-7.168-15.9744-15.9744-15.9744z" fill="#D8D5BA" p-id="3033"></path><path d="M448 287.9488h-128c-17.7152 0-31.9488 14.336-31.9488 31.9488v384c0 17.7152 14.336 31.9488 31.9488 31.9488h128c17.7152 0 31.9488-14.336 31.9488-31.9488v-384c0.1024-17.6128-14.2336-31.9488-31.9488-31.9488z m0 416.0512h-128v-384h128v384zM512 0C229.2736 0 0 229.2736 0 512s229.2736 512 512 512 512-229.2736 512-512S794.7264 0 512 0z m0 960.1024C264.4992 960.1024 63.8976 759.5008 63.8976 512S264.4992 63.8976 512 63.8976 960.1024 264.4992 960.1024 512 759.5008 960.1024 512 960.1024z m192-672.1536h-128c-17.7152 0-31.9488 14.336-31.9488 31.9488v384c0 17.7152 14.336 31.9488 31.9488 31.9488h128c17.7152 0 31.9488-14.336 31.9488-31.9488v-384c0.1024-17.6128-14.2336-31.9488-31.9488-31.9488z m0 416.0512h-128v-384h128v384z" fill="#5F4E56" p-id="3034"></path></svg>